<svg width="36" height="36" viewBox="0 0 36 36" fill="none" xmlns="http://www.w3.org/2000/svg">
<g id="Group 11">
<path id="Rectangle" d="M0 18C0 8.05888 8.05888 0 18 0C27.9411 0 36 8.05888 36 18C36 27.9411 27.9411 36 18 36C8.05888 36 0 27.9411 0 18Z" fill="#1778F2" fill-opacity="0.2"/>
<path id="Vector" d="M18 8C12.5 8 8 12.5 8 18C8 23 11.7 27.1 16.4 27.9V20.9H13.9V18H16.4V15.8C16.4 13.3 17.9 11.9 20.2 11.9C21.3 11.9 22.4 12.1 22.4 12.1V14.6H21.1C19.9 14.6 19.5 15.4 19.5 16.2V18H22.3L21.9 20.9H19.6V27.9C24.3 27.1 28 23 28 18C28 12.5 23.5 8 18 8Z" fill="#1778F2"/>
</g>
</svg>
