<svg width="36" height="36" viewBox="0 0 36 36" fill="none" xmlns="http://www.w3.org/2000/svg">
<g id="Group 10">
<path id="Rectangle" d="M0 18C0 8.05888 8.05888 0 18 0C27.9411 0 36 8.05888 36 18C36 27.9411 27.9411 36 18 36C8.05888 36 0 27.9411 0 18Z" fill="#F00075" fill-opacity="0.2"/>
<path id="Vector" d="M18 10.622C20.403 10.622 20.688 10.631 21.637 10.674C22.514 10.714 22.991 10.861 23.308 10.984C23.728 11.147 24.028 11.342 24.343 11.657C24.658 11.972 24.853 12.272 25.016 12.692C25.139 13.009 25.286 13.486 25.326 14.363C25.369 15.312 25.378 15.597 25.378 18C25.378 20.403 25.369 20.688 25.326 21.637C25.286 22.514 25.139 22.991 25.016 23.308C24.853 23.728 24.658 24.028 24.343 24.343C24.028 24.658 23.728 24.853 23.308 25.016C22.991 25.139 22.514 25.286 21.637 25.326C20.688 25.369 20.404 25.378 18 25.378C15.596 25.378 15.312 25.369 14.363 25.326C13.486 25.286 13.009 25.139 12.692 25.016C12.272 24.853 11.972 24.658 11.657 24.343C11.342 24.028 11.147 23.728 10.984 23.308C10.861 22.991 10.714 22.514 10.674 21.637C10.631 20.688 10.622 20.403 10.622 18C10.622 15.597 10.631 15.312 10.674 14.363C10.714 13.486 10.861 13.009 10.984 12.692C11.147 12.272 11.342 11.972 11.657 11.657C11.972 11.342 12.272 11.147 12.692 10.984C13.009 10.861 13.486 10.714 14.363 10.674C15.312 10.631 15.597 10.622 18 10.622ZM18 9C15.556 9 15.249 9.01 14.289 9.054C13.331 9.098 12.677 9.25 12.105 9.472C11.513 9.702 11.011 10.01 10.511 10.511C10.011 11.011 9.703 11.513 9.473 12.105C9.25 12.677 9.098 13.331 9.054 14.289C9.01 15.249 9 15.556 9 18C9 20.444 9.01 20.751 9.054 21.711C9.098 22.669 9.25 23.323 9.472 23.896C9.702 24.488 10.01 24.99 10.51 25.49C11.01 25.99 11.512 26.298 12.104 26.528C12.676 26.75 13.331 26.903 14.289 26.946C15.249 26.99 15.556 27 18 27C20.444 27 20.751 26.99 21.711 26.946C22.669 26.902 23.323 26.75 23.896 26.528C24.488 26.298 24.99 25.99 25.49 25.49C25.99 24.99 26.298 24.488 26.528 23.896C26.75 23.324 26.903 22.669 26.946 21.711C26.99 20.751 27 20.444 27 18C27 15.556 26.99 15.249 26.946 14.289C26.902 13.331 26.75 12.677 26.528 12.104C26.298 11.512 25.99 11.01 25.49 10.51C24.99 10.01 24.488 9.702 23.896 9.472C23.324 9.25 22.669 9.097 21.711 9.054C20.751 9.01 20.444 9 18 9ZM18 13.378C15.448 13.378 13.378 15.447 13.378 18C13.378 20.553 15.448 22.622 18 22.622C20.552 22.622 22.622 20.553 22.622 18C22.622 15.447 20.552 13.378 18 13.378ZM18 21C16.343 21 15 19.657 15 18C15 16.343 16.343 15 18 15C19.657 15 21 16.343 21 18C21 19.657 19.657 21 18 21ZM22.804 12.116C22.208 12.116 21.724 12.6 21.724 13.196C21.724 13.792 22.208 14.276 22.804 14.276C23.4 14.276 23.884 13.792 23.884 13.196C23.884 12.6 23.401 12.116 22.804 12.116Z" fill="#F00075"/>
</g>
</svg>
