<svg width="36" height="36" viewBox="0 0 36 36" fill="none" xmlns="http://www.w3.org/2000/svg">
<g id="Group 14">
<path id="Rectangle" d="M0 18C0 8.05888 8.05888 0 18 0C27.9411 0 36 8.05888 36 18C36 27.9411 27.9411 36 18 36C8.05888 36 0 27.9411 0 18Z" fill="#E60122" fill-opacity="0.2"/>
<path id="Vector" d="M18.289 8C12.617 8 9.60596 11.648 9.60596 15.622C9.60596 17.468 10.631 19.768 12.272 20.5C12.522 20.611 12.653 20.563 12.711 20.331C12.755 20.156 12.978 19.302 13.076 18.903C13.108 18.775 13.093 18.666 12.985 18.541C12.445 17.911 12.01 16.75 12.01 15.668C12.01 12.891 14.204 10.204 17.943 10.204C21.173 10.204 23.433 12.312 23.433 15.326C23.433 18.733 21.639 21.094 19.303 21.094C18.012 21.094 17.046 20.073 17.355 18.817C17.727 17.322 18.444 15.705 18.444 14.626C18.444 13.659 17.902 12.851 16.781 12.851C15.462 12.851 14.402 14.16 14.402 15.91C14.402 17.025 14.796 17.779 14.796 17.779C14.796 17.779 13.494 23.058 13.256 24.04C12.851 25.706 13.309 28.408 13.35 28.644C13.371 28.77 13.517 28.813 13.6 28.707C13.729 28.542 15.299 26.288 15.742 24.656C15.9 24.066 16.559 21.661 16.559 21.661C16.989 22.445 18.24 23.107 19.572 23.107C23.535 23.107 26.394 19.613 26.394 15.274C26.394 11.112 22.849 8 18.289 8Z" fill="#E60122"/>
</g>
</svg>
