<svg width="36" height="36" viewBox="0 0 36 36" fill="none" xmlns="http://www.w3.org/2000/svg">
<g id="Group 12">
<path id="Rectangle" d="M0 18C0 8.05888 8.05888 0 18 0C27.9411 0 36 8.05888 36 18C36 27.9411 27.9411 36 18 36C8.05888 36 0 27.9411 0 18Z" fill="#1DA1F2" fill-opacity="0.2"/>
<path id="Vector" d="M28.23 11.924C27.494 12.25 26.703 12.471 25.873 12.57C26.72 12.062 27.371 11.258 27.677 10.3C26.884 10.77 26.006 11.112 25.071 11.296C24.324 10.498 23.257 10 22.077 10C19.811 10 17.974 11.837 17.974 14.103C17.974 14.425 18.01 14.738 18.08 15.038C14.67 14.867 11.647 13.234 9.62298 10.751C9.26998 11.357 9.06698 12.062 9.06698 12.814C9.06698 14.238 9.79098 15.493 10.892 16.229C10.219 16.208 9.58698 16.023 9.03298 15.716C9.03298 15.733 9.03298 15.75 9.03298 15.768C9.03298 17.756 10.447 19.415 12.325 19.791C11.981 19.885 11.618 19.935 11.244 19.935C10.98 19.935 10.723 19.909 10.472 19.861C10.994 21.491 12.51 22.677 14.305 22.711C12.901 23.811 11.131 24.467 9.20898 24.467C8.87798 24.467 8.55098 24.448 8.22998 24.41C10.046 25.574 12.203 26.253 14.52 26.253C22.067 26.253 26.195 20.001 26.195 14.578C26.195 14.4 26.191 14.223 26.183 14.047C26.985 13.47 27.68 12.747 28.23 11.924Z" fill="#1DA1F2"/>
</g>
</svg>
