<svg width="36" height="36" viewBox="0 0 36 36" fill="none" xmlns="http://www.w3.org/2000/svg">
<g id="Group 13">
<path id="Rectangle" d="M0 18C0 8.05888 8.05888 0 18 0C27.9411 0 36 8.05888 36 18C36 27.9411 27.9411 36 18 36C8.05888 36 0 27.9411 0 18Z" fill="#FF0000" fill-opacity="0.2"/>
<path id="Vector" d="M27.8 14.001C27.8 14.001 27.605 12.623 27.005 12.016C26.245 11.219 25.392 11.215 25.001 11.169C22.202 10.967 18.004 10.967 18.004 10.967H17.995C17.995 10.967 13.797 10.967 10.998 11.169C10.608 11.216 9.756 11.22 8.995 12.016C8.395 12.623 8.2 14.001 8.2 14.001C8.2 14.001 8 15.62 8 17.238V18.755C8 20.373 8.2 21.992 8.2 21.992C8.2 21.992 8.395 23.37 8.995 23.977C9.756 24.774 10.755 24.748 11.2 24.832C12.8 24.985 18 25.033 18 25.033C18 25.033 22.203 25.027 25.001 24.824C25.392 24.777 26.244 24.773 27.005 23.977C27.605 23.37 27.8 21.992 27.8 21.992C27.8 21.992 28 20.374 28 18.755V17.238C28 15.62 27.8 14.001 27.8 14.001ZM15.935 20.594L15.934 14.974L21.338 17.794L15.935 20.594Z" fill="#FF0000"/>
</g>
</svg>
